<?xml version="1.0" encoding="UTF-8"?>
<svg width="146px" height="64px" viewBox="0 0 146 64" version="1.1" xmlns="http://www.w3.org/2000/svg" xmlns:xlink="http://www.w3.org/1999/xlink">
    <!-- Generator: sketchtool 51.2 (57519) - http://www.bohemiancoding.com/sketch -->
    <title>151E8A7C-C6CA-4301-A981-C7B81D13AA7E</title>
    <desc>Created with sketchtool.</desc>
    <defs></defs>
    <g id="Page-1" stroke="none" stroke-width="1" fill="none" fill-rule="evenodd">
        <g id="Website" transform="translate(-786.000000, -2304.000000)">
            <g id="programs" transform="translate(0.000000, 1973.000000)">
                <g id="Group-4" transform="translate(370.000000, 80.000000)">
                    <g id="Group-2" transform="translate(0.000000, 246.000000)">
                        <g id="AAMI" transform="translate(416.000000, 5.000000)">
                            <path d="M144.409,63.831 L145.225,63.831 L145.225,55.265 L144.409,55.265 L144.409,63.831 Z M133.629,63.831 L133.629,55.265 L134.93,55.265 L138.108,62.606 L141.322,55.265 L142.588,55.265 L142.588,63.831 L141.768,63.831 L141.768,56.156 L138.498,63.831 L137.718,63.831 L134.466,56.156 L134.466,63.831 L133.629,63.831 Z M128.368,56.232 L126.732,60.206 L130.042,60.206 L128.368,56.232 Z M127.922,55.265 L128.868,55.265 L132.55,63.831 L131.639,63.831 L130.356,60.934 L126.359,60.934 L125.133,63.831 L124.222,63.831 L127.922,55.265 Z M119.708,56.232 L118.053,60.206 L121.379,60.206 L119.708,56.232 Z M119.26,55.265 L120.208,55.265 L123.871,63.831 L122.942,63.831 L121.695,60.934 L117.717,60.934 L116.472,63.831 L115.543,63.831 L119.26,55.265 Z M105.024,63.831 L105.024,55.265 L105.821,55.265 L105.821,59.057 L110.413,59.057 L110.413,55.265 L111.211,55.265 L111.211,63.831 L110.413,63.831 L110.413,59.765 L105.821,59.765 L105.821,63.831 L104.912,63.831 L105.024,63.831 Z M101.175,63.831 L101.175,56.025 L99.17,56.025 L99.17,55.265 L104.056,55.265 L104.056,56.025 L102.012,56.025 L102.012,63.831 L101.175,63.831 Z M97.348,63.831 L98.148,63.831 L98.148,55.265 L97.348,55.265 L97.348,63.831 Z M93.276,62.791 L95.433,55.265 L96.306,55.265 L93.833,63.831 L92.717,63.831 L90.804,56.791 L88.872,63.831 L87.774,63.831 L85.303,55.265 L86.194,55.265 L88.314,62.791 L90.393,55.265 L91.23,55.265 L93.276,62.791 Z M76.53,63.831 L76.53,55.265 L81.195,55.265 L81.195,56.025 L77.331,56.025 L77.331,59.113 L81.066,59.113 L81.066,59.858 L77.331,59.858 L77.331,63.163 L81.195,63.163 L81.195,63.831 L76.53,63.831 Z M69.414,63.831 L69.414,55.265 L71.736,55.265 C72.441,55.265 73.056,55.339 73.503,55.525 C73.967,55.692 74.3,55.897 74.561,56.156 C74.803,56.398 74.989,56.677 75.082,56.955 C75.175,57.272 75.247,57.57 75.269,57.906 C75.269,58.369 75.176,58.814 74.951,59.259 C74.691,59.631 74.412,59.985 74.041,60.23 C73.651,60.432 73.186,60.6 72.739,60.6 L75.176,63.831 L74.096,63.831 L71.066,59.967 L71.829,59.967 C72.349,59.967 72.795,59.858 73.203,59.707 C73.558,59.583 73.869,59.357 74.096,59.057 C74.358,58.76 74.469,58.405 74.469,57.977 C74.469,57.588 74.301,57.196 74.096,56.936 C73.855,56.604 73.575,56.398 73.186,56.232 C72.796,56.082 72.424,56.025 71.977,56.025 L70.229,56.025 L70.229,63.831 L69.414,63.831 Z M66.44,55.265 L67.313,55.265 L66.29,57.458 L65.472,57.458 L66.44,55.265 Z M57.611,61.043 L57.611,55.264 L58.427,55.264 L58.427,61.043 C58.427,61.508 58.52,61.9 58.706,62.234 C58.912,62.606 59.152,62.884 59.469,63.053 C59.785,63.22 60.156,63.314 60.546,63.314 C60.881,63.314 61.235,63.221 61.551,63.053 C61.865,62.849 62.165,62.552 62.33,62.216 C62.554,61.826 62.648,61.38 62.648,60.821 L62.648,55.265 L63.466,55.265 L63.466,60.804 C63.466,61.322 63.391,61.787 63.205,62.216 C63.075,62.606 62.851,62.956 62.554,63.239 C62.292,63.502 61.974,63.704 61.625,63.831 C61.272,63.924 60.881,64 60.546,64 C60.156,64 59.785,63.924 59.449,63.831 C59.077,63.704 58.762,63.535 58.502,63.239 C58.205,63.017 58.001,62.698 57.816,62.309 C57.666,61.973 57.611,61.509 57.611,61.043 Z M47.871,59.464 C47.871,60.134 47.982,60.693 48.243,61.192 C48.447,61.639 48.761,62.087 49.116,62.343 C49.487,62.681 49.877,62.884 50.305,63.017 C50.734,63.163 51.106,63.22 51.549,63.22 C51.943,63.22 52.368,63.163 52.778,63.017 C53.204,62.885 53.594,62.681 53.987,62.402 C54.347,62.074 54.653,61.692 54.895,61.27 C55.102,60.821 55.231,60.283 55.288,59.672 C55.292,58.98 55.112,58.299 54.767,57.698 C54.395,57.143 53.93,56.678 53.373,56.362 C52.778,56.083 52.182,55.898 51.549,55.898 C51.048,55.898 50.585,56.026 50.138,56.234 C49.684,56.401 49.276,56.674 48.947,57.03 C48.633,57.385 48.336,57.775 48.168,58.185 C47.967,58.58 47.865,59.02 47.871,59.464 Z M47.035,59.502 C47.035,58.927 47.164,58.405 47.368,57.883 C47.611,57.384 47.926,56.882 48.318,56.471 C48.725,56.046 49.172,55.691 49.748,55.449 C50.269,55.188 50.881,55.077 51.548,55.077 C52.368,55.077 53.13,55.32 53.837,55.691 C54.535,56.072 55.109,56.647 55.491,57.345 C55.917,58.052 56.123,58.813 56.123,59.67 C56.096,60.278 55.957,60.877 55.713,61.436 C55.416,62.012 55.08,62.458 54.636,62.848 C54.189,63.229 53.679,63.53 53.13,63.738 C52.595,63.91 52.038,63.998 51.477,64 C50.926,63.979 50.381,63.879 49.859,63.704 C49.339,63.442 48.836,63.18 48.409,62.791 C47.981,62.402 47.666,61.9 47.423,61.322 C47.16,60.752 47.027,60.13 47.035,59.502 Z M42.574,63.831 L42.574,61.008 L39.562,55.265 L40.473,55.265 L42.983,60.096 L45.53,55.265 L46.513,55.265 L43.41,61.008 L43.41,63.831 L42.574,63.831 Z M32.37,63.831 L32.37,61.008 L29.379,55.265 L30.289,55.265 L32.798,60.096 L35.326,55.265 L36.329,55.265 L33.225,61.008 L33.225,63.831 L32.37,63.831 Z M23.337,63.831 L23.337,55.265 L24.155,55.265 L24.155,60.206 L28.17,55.265 L29.303,55.265 L25.846,59.503 L29.267,63.831 L28.17,63.831 L25.307,60.171 L24.155,61.529 L24.155,63.831 L23.245,63.831 L23.337,63.831 Z M13.448,58.963 C13.54,58.183 13.784,57.512 14.231,56.937 C14.677,56.325 15.195,55.859 15.864,55.541 C16.502,55.233 17.201,55.074 17.909,55.078 C18.301,55.078 18.691,55.135 19.081,55.229 C19.434,55.339 19.788,55.467 20.139,55.653 C20.492,55.859 20.811,56.102 21.089,56.398 C21.386,56.697 21.646,57.069 21.851,57.458 L20.921,57.458 C20.678,57.142 20.346,56.808 20.027,56.604 C19.713,56.361 19.378,56.175 19.005,56.082 C18.671,55.966 18.32,55.902 17.965,55.896 C17.464,55.896 17,56.025 16.554,56.156 C16.107,56.324 15.698,56.604 15.381,56.937 C15.026,57.259 14.741,57.652 14.545,58.09 C14.324,58.555 14.248,59.057 14.248,59.578 C14.248,60.283 14.434,60.915 14.749,61.473 C15.085,62.03 15.567,62.459 16.107,62.791 C16.683,63.053 17.278,63.22 17.909,63.22 C18.28,63.22 18.672,63.163 19.005,63.053 C19.393,62.944 19.758,62.768 20.085,62.531 C20.382,62.29 20.678,62.013 20.939,61.639 L21.904,61.639 C21.59,62.18 21.236,62.624 20.811,62.994 C20.406,63.341 19.939,63.608 19.434,63.777 C18.957,63.917 18.463,63.992 17.965,64 C17.386,64 16.81,63.912 16.256,63.738 C15.732,63.525 15.247,63.225 14.824,62.848 C14.416,62.419 14.045,61.973 13.784,61.398 C13.539,60.821 13.413,60.203 13.412,59.577 C13.412,59.352 13.448,59.15 13.448,58.963 Z M6.106,61.043 L6.106,55.264 L6.924,55.264 L6.924,61.043 C6.924,61.508 7.018,61.9 7.203,62.234 C7.407,62.606 7.669,62.884 7.986,63.053 C8.3,63.22 8.636,63.314 9.026,63.314 C9.383,63.313 9.734,63.224 10.048,63.053 C10.381,62.849 10.681,62.552 10.827,62.216 C11.052,61.826 11.145,61.38 11.145,60.821 L11.145,55.265 L11.961,55.265 L11.961,60.804 C11.961,61.322 11.906,61.787 11.72,62.216 C11.591,62.609 11.36,62.962 11.052,63.239 C10.796,63.51 10.477,63.714 10.123,63.831 C9.766,63.936 9.398,63.992 9.026,64 C8.636,64 8.3,63.924 7.928,63.831 C7.593,63.704 7.278,63.535 6.999,63.239 C6.703,63.017 6.499,62.698 6.313,62.309 C6.181,61.973 6.106,61.509 6.106,61.043 Z M1.498,63.163 L5.084,63.163 L5.084,63.831 L0.715,63.831 L0.715,55.265 L1.498,55.265 L1.498,63.163 Z" id="Fill-16" fill="#000000"></path>
                            <polygon id="Fill-18" fill="#CF4037" points="137.3258 0.2482 137.3258 50.6562 144.7058 50.6562 144.7058 0.3802"></polygon>
                            <path d="M56.3639,30.173 L61.5859,17.459 L66.8479,30.137 L56.3639,30.173 Z M27.4439,30.191 L16.8859,30.211 L21.9049,17.516 L27.4439,30.191 Z M105.3779,34.802 L89.3729,0.268 L81.2709,47.085 L61.5859,0.248 L41.6269,46.659 L21.9259,0.248 L0.2719,50.58 L8.8759,50.674 L8.8769,50.674 L14.1919,37.552 L29.8789,37.57 L34.9149,50.693 L48.5399,50.674 L53.5759,37.552 L69.4679,37.552 L74.5789,50.656 L87.9789,50.674 L91.9219,22.498 L105.3779,50.674 L118.8529,22.552 L122.5879,50.524 L130.2449,50.6 L122.6619,0.231 L105.3779,34.802 Z" id="Fill-19" fill="#CF4037"></path>
                        </g>
                    </g>
                </g>
            </g>
        </g>
    </g>
</svg>