<?xml version="1.0" encoding="UTF-8"?>
<svg width="247px" height="73px" viewBox="0 0 247 73" version="1.1" xmlns="http://www.w3.org/2000/svg" xmlns:xlink="http://www.w3.org/1999/xlink">
    <!-- Generator: sketchtool 51.2 (57519) - http://www.bohemiancoding.com/sketch -->
    <title>841D9BD7-2F8D-4364-9717-BC3B4ADA65AB</title>
    <desc>Created with sketchtool.</desc>
    <defs>
        <radialGradient cx="50%" cy="50%" fx="50%" fy="50%" r="50%" id="radialGradient-1">
            <stop stop-color="#FFCD05" offset="0%"></stop>
            <stop stop-color="#FFCD05" offset="50%"></stop>
            <stop stop-color="#FFCD05" stop-opacity="0.5" offset="65%"></stop>
            <stop stop-color="#FFCD05" stop-opacity="0.2" offset="80%"></stop>
            <stop stop-color="#FFCD05" stop-opacity="0.075" offset="90%"></stop>
            <stop stop-color="#FFCD05" stop-opacity="0" offset="100%"></stop>
        </radialGradient>
    </defs>
    <g id="Page-1" stroke="none" stroke-width="1" fill="none" fill-rule="evenodd">
        <g id="Website" transform="translate(-370.000000, -2299.000000)" fill-rule="nonzero">
            <g id="programs" transform="translate(0.000000, 1973.000000)">
                <g id="Group-4" transform="translate(370.000000, 80.000000)">
                    <g id="Group-2" transform="translate(0.000000, 246.000000)">
                        <g id="Suncorp">
                            <path d="M0.741818182,29.5553145 C0.741818182,33.7386117 3.15272727,35.6258134 8.19090909,36.7581345 L12.0545455,37.6073753 C16.5981818,38.6453362 17.4945455,39.7147505 17.4945455,41.9479393 C17.4945455,44.6529284 15.1763636,46.35141 10.9727273,46.35141 C6.58363636,46.35141 4.32727273,44.4327549 4.08,40.5010846 L0,40.5010846 C0,46.5715835 4.23454545,50 10.88,50 C18.1436364,50 21.6672727,46.2570499 21.6672727,41.4132321 C21.6672727,37.0726681 19.1327273,34.9652928 14.8054545,34.021692 L10.7563636,33.0780911 C6.12,32.0401302 4.79090909,31.4425163 4.79090909,29.0206074 C4.79090909,26.6930586 6.52181818,24.8373102 10.4163636,24.8373102 C15.0527273,24.8373102 16.4436364,26.9761388 16.7836364,29.8698482 L20.8327273,29.8698482 C20.8018182,23.9566161 16.2890909,21.0943601 10.6018182,21.0943601 C3.92545455,21.0629067 0.741818182,24.9631236 0.741818182,29.5553145 Z M23.4909091,21.7863341 L23.4909091,38.1420824 C23.4909091,46.5086768 27.3854545,49.9056399 34.1854545,49.9056399 C41.0781818,49.9056399 44.88,46.4457701 44.88,38.1420824 L44.88,21.7863341 L40.46,21.7863341 L40.46,38.6767896 C40.46,44.0553145 38.2036364,46.1312364 33.9690909,46.1312364 C30.1672727,46.1312364 27.88,43.9295011 27.88,38.6767896 L27.88,21.7863341 L23.4909091,21.7863341 Z M47.8163636,21.7863341 L47.8163636,49.1822126 L51.8654545,49.1822126 L51.8654545,27.8882863 L64.7545455,49.1822126 L69.36,49.1822126 L69.36,21.7863341 L65.28,21.7863341 L65.28,42.9544469 L52.6381818,21.7863341 L47.8163636,21.7863341 Z M95.3854545,30.3101952 C94.9218182,24.8058568 90.5636364,21.1572668 84.1963636,21.1572668 C76.3454545,21.1572668 71.6472727,26.9446855 71.6472727,35.3741866 C71.6472727,45.1876356 76.9327273,49.9056399 83.8563636,49.9056399 C90.8727273,49.9056399 94.9527273,45.0932755 95.5090909,39.3687636 L91.2745455,39.3687636 C90.4090909,43.7093275 88.06,46.0683297 84.1036364,46.0683297 C79.6527273,46.0683297 76.0363636,43.0488069 76.0363636,35.8145336 C76.0363636,28.29718 79.3745455,24.9002169 84.1036364,24.9002169 C88.2145455,24.9002169 90.3163636,26.9132321 91.12,30.2787419 L95.3854545,30.3101952 Z M97.24,35.5629067 C97.24,44.9045553 102.525455,50 110.221818,50 C118.381818,50 123.358182,44.0867679 123.358182,35.154013 C123.358182,25.2776573 117.670909,21 110.283636,21 C102.834545,21 97.24,26.0954447 97.24,35.5629067 Z M101.629091,35.7201735 C101.629091,28.6746204 105.214545,24.8373102 110.407273,24.8373102 C115.167273,24.8373102 119,28.29718 119,35.1854664 C119,42.4826464 115.507273,46.1312364 110.530909,46.1312364 C105.06,46.1312364 101.629091,42.6399132 101.629091,35.7201735 Z M129.88,25.4978308 L137.978182,25.4978308 C141.161818,25.4978308 142.8,26.7874187 142.8,29.8069414 C142.8,32.9208243 141.161818,34.1789588 137.576364,34.1789588 L129.849091,34.1789588 L129.88,25.4978308 Z M125.583636,21.7863341 L125.583636,49.1822126 L129.849091,49.1822126 L129.849091,37.7646421 L137.298182,37.7646421 C140.852727,37.7646421 142.089091,38.8655098 142.212727,41.9479393 L142.398182,45.7852495 C142.46,47.4208243 142.583636,48.3644252 142.892727,49.1507592 L147.498182,49.1507592 C146.910909,48.0498915 146.663636,46.8546638 146.601818,44.4642082 L146.54,41.4132321 C146.478182,38.2364425 145.674545,36.8839479 143.201818,35.8145336 C145.674545,34.6822126 147.127273,32.4490239 147.127273,29.3036876 C147.127273,24.7744035 144.376364,21.7863341 138.287273,21.7863341 C138.287273,21.7863341 125.583636,21.7863341 125.583636,21.7863341 Z M149.692727,21.7863341 L149.692727,49.1822126 L154.02,49.1822126 L154.02,38.1420824 L161.561818,38.1420824 C167.125455,38.1420824 170,34.9652928 170,29.9013015 C170,24.5856833 166.785455,21.7863341 161.716364,21.7863341 L149.692727,21.7863341 Z M154.02,25.4978308 L160.603636,25.4978308 C164.127273,25.4978308 165.672727,26.9761388 165.672727,29.9642082 C165.672727,33.0151844 164.034545,34.4934924 160.603636,34.4934924 L154.02,34.4934924 L154.02,25.4978308 Z" id="Shape" fill="#004346"></path>
                            <path d="M210.5,0 C190.345652,0 174,16.3456522 174,36.5 C174,56.6543478 190.345652,73 210.5,73 C230.654348,73 247,56.6543478 247,36.5 C247,16.3456522 230.654348,0 210.5,0 Z M210.5,54.75 C200.406957,54.75 192.25,46.5930435 192.25,36.5 C192.25,26.4069565 200.406957,18.25 210.5,18.25 C220.593043,18.25 228.75,26.4069565 228.75,36.5 C228.75,46.5930435 220.561304,54.75 210.5,54.75 Z" id="Shape" fill="url(#radialGradient-1)"></path>
                        </g>
                    </g>
                </g>
            </g>
        </g>
    </g>
</svg>