<?xml version="1.0" encoding="UTF-8"?>
<svg width="45px" height="45px" viewBox="0 0 45 45" version="1.1" xmlns="http://www.w3.org/2000/svg" xmlns:xlink="http://www.w3.org/1999/xlink">
    <!-- Generator: sketchtool 51.2 (57519) - http://www.bohemiancoding.com/sketch -->
    <title>ABAD1F10-A9DD-4779-9EC5-D36A1530A5CB</title>
    <desc>Created with sketchtool.</desc>
    <defs></defs>
    <g id="Page-1" stroke="none" stroke-width="1" fill="none" fill-rule="evenodd">
        <g id="Website" transform="translate(-784.000000, -879.000000)">
            <g id="Step-2" transform="translate(785.000000, 878.000000)">
                <g id="2" transform="translate(0.000000, 2.000000)">
                    <path d="M17.02,28.46 L17.02,26.8 C17.353335,26.5066652 17.8399968,26.0866694 18.48,25.54 C19.1200032,24.9933306 19.6099983,24.5700015 19.95,24.27 C20.2900017,23.9699985 20.7133308,23.5833357 21.22,23.11 C21.7266692,22.6366643 22.1199986,22.2300017 22.4,21.89 C22.6800014,21.5499983 22.9666652,21.1666688 23.26,20.74 C23.8066694,19.9666628 24.08,19.1933372 24.08,18.42 C24.08,16.7666584 23.2933412,15.94 21.72,15.94 C20.9333294,15.94 20.3233355,16.1899975 19.89,16.69 C19.4566645,17.1900025 19.2266668,17.8599958 19.2,18.7 L17,18.7 C17.0400002,17.1799924 17.4966623,16.0166707 18.37,15.21 C19.2433377,14.4033293 20.379993,14 21.78,14 C23.180007,14 24.2899959,14.3933294 25.11,15.18 C25.9300041,15.9666706 26.34,17.0066602 26.34,18.3 C26.34,19.2733382 26.0800026,20.1999956 25.56,21.08 C25.2799986,21.5333356 25.0133346,21.9366649 24.76,22.29 C24.5066654,22.6433351 24.1533356,23.0466644 23.7,23.5 C23.2466644,23.9533356 22.886668,24.3066654 22.62,24.56 C22.353332,24.8133346 21.9633359,25.1666644 21.45,25.62 C20.9366641,26.0733356 20.5866676,26.3866658 20.4,26.56 L26.74,26.56 L26.74,28.46 L17.02,28.46 Z" fill="#7B7B7B"></path>
                    <path d="M0,21.5 C0,9.626 9.626,0 21.5,0 C33.374,0 43,9.626 43,21.5 C43,33.374 33.374,43 21.5,43 C9.626,43 0,33.374 0,21.5 Z" id="Stroke-109" stroke="#7B7B7B" stroke-width="1.5"></path>
                </g>
            </g>
        </g>
    </g>
</svg>