<?xml version="1.0" encoding="UTF-8"?>
<svg width="45px" height="45px" viewBox="0 0 45 45" version="1.1" xmlns="http://www.w3.org/2000/svg" xmlns:xlink="http://www.w3.org/1999/xlink">
    <!-- Generator: sketchtool 51.2 (57519) - http://www.bohemiancoding.com/sketch -->
    <title>26E03FDA-EE50-46C2-9F90-3AEBE9976AEC</title>
    <desc>Created with sketchtool.</desc>
    <defs></defs>
    <g id="Page-1" stroke="none" stroke-width="1" fill="none" fill-rule="evenodd">
        <g id="Website" transform="translate(-1178.000000, -879.000000)">
            <g id="Step-3" transform="translate(1179.000000, 880.000000)">
                <g id="3">
                    <path d="M17.2,17.94 C17.2800004,16.6999938 17.7566623,15.7333368 18.63,15.04 C19.5033377,14.3466632 20.6299931,14 22.01,14 C23.3900069,14 24.4766627,14.3566631 25.27,15.07 C26.0633373,15.7833369 26.46,16.6933278 26.46,17.8 C26.46,18.6266708 26.2400022,19.3333304 25.8,19.92 C25.3599978,20.5066696 24.8333364,20.899999 24.22,21.1 L24.22,21.18 C25.0066706,21.4200012 25.6199978,21.8566635 26.06,22.49 C26.5000022,23.1233365 26.72,23.9866612 26.72,25.08 C26.72,26.1733388 26.3100041,27.0999962 25.49,27.86 C24.6699959,28.6200038 23.5300073,29 22.07,29 C20.6099927,29 19.4166713,28.6300037 18.49,27.89 C17.5633287,27.1499963 17.066667,26.0866736 17,24.7 L19.2,24.7 C19.2533336,25.4066702 19.5266642,25.9833311 20.02,26.43 C20.5133358,26.8766689 21.1733292,27.1 22,27.1 C22.8266708,27.1 23.4599978,26.8766689 23.9,26.43 C24.3400022,25.9833311 24.56,25.4066702 24.56,24.7 C24.56,23.766662 24.2633363,23.1033353 23.67,22.71 C23.0766637,22.3166647 22.1666728,22.12 20.94,22.12 L20.42,22.12 L20.42,20.24 L20.96,20.24 C23.1733444,20.2133332 24.28,19.4866738 24.28,18.06 C24.28,17.4199968 24.0733354,16.9100019 23.66,16.53 C23.2466646,16.1499981 22.6633371,15.96 21.91,15.96 C21.1566629,15.96 20.5733354,16.1499981 20.16,16.53 C19.7466646,16.9100019 19.5000004,17.3799972 19.42,17.94 L17.2,17.94 Z" fill="#7B7B7B"></path>
                    <path d="M0,21.5 C0,9.626 9.626,0 21.5,0 C33.374,0 43,9.626 43,21.5 C43,33.374 33.374,43 21.5,43 C9.626,43 0,33.374 0,21.5 Z" id="Stroke-107" stroke="#7B7B7B" stroke-width="1.5"></path>
                </g>
            </g>
        </g>
    </g>
</svg>