<?xml version="1.0" encoding="UTF-8"?>
<svg width="66px" height="88px" viewBox="0 0 66 88" version="1.1" xmlns="http://www.w3.org/2000/svg" xmlns:xlink="http://www.w3.org/1999/xlink">
    <!-- Generator: sketchtool 51.2 (57519) - http://www.bohemiancoding.com/sketch -->
    <title>3435E061-EBA6-48F9-8159-DC1CA0C2C4F7</title>
    <desc>Created with sketchtool.</desc>
    <defs>
        <linearGradient x1="50%" y1="0%" x2="50%" y2="100%" id="linearGradient-1">
            <stop stop-color="#B5075C" offset="0%"></stop>
            <stop stop-color="#E62343" offset="100%"></stop>
        </linearGradient>
    </defs>
    <g id="Page-1" stroke="none" stroke-width="1" fill="none" fill-rule="evenodd">
        <g id="Website" transform="translate(-856.000000, -878.000000)">
            <g id="Step-2" transform="translate(785.000000, 878.000000)">
                <g id="enableeftpos" transform="translate(71.000000, 0.000000)">
                    <path d="M37.0497715,9.88764045 L24.7474318,9.88764045 L24.7474318,32.206609 L24.7474318,48.5060057 L24.7191011,87.9959695 L40.4621492,88 C41.3648223,88 42.1248652,87.3228737 42.1248652,86.4976261 L43.8002811,46.5048557 C46.6157614,44.6095068 48.4494382,41.5453089 48.4494382,38.0861206 L48.4494382,20.2994645 C48.4494382,14.5459064 43.3508984,9.88764045 37.0497715,9.88764045" id="Fill-111" fill="#CCCBCD"></path>
                    <path d="M12.522095,9.88764045 C6.1519987,9.88764045 0.988764045,14.5459064 0.988764045,20.2994645 L0.988764045,38.0861206 C0.988764045,41.5453089 2.84251145,44.6095068 5.72139994,46.5048557 L7.56922168,86.4976261 C7.56922168,87.3228737 8.313881,88 9.22742194,88 L24.7191011,88 L24.7191011,48.5060057 L24.7191011,32.206609 L24.7191011,9.88764045 L12.522095,9.88764045 Z" id="Fill-113" fill="#DFDFDF"></path>
                    <path d="M41.5280899,15.3258427 C41.5280899,16.1452712 40.8519564,16.8089888 40.0194115,16.8089888 L7.44126271,16.8089888 C6.60871772,16.8089888 5.93258427,16.1452712 5.93258427,15.3258427 C5.93258427,14.5064142 6.60871772,13.8426966 7.44126271,13.8426966 L40.0194115,13.8426966 C40.8519564,13.8426966 41.5280899,14.5064142 41.5280899,15.3258427" id="Fill-115" fill="#969697"></path>
                    <path d="M17.7977528,57.3307282 C17.7977528,58.4325686 16.9351355,59.3258427 15.8698965,59.3258427 L11.8154967,59.3258427 C10.7502578,59.3258427 9.88764045,58.4325686 9.88764045,57.3307282 L9.88764045,54.3985915 C9.88764045,53.2977685 10.7502578,52.4044944 11.8154967,52.4044944 L15.8698965,52.4044944 C16.9351355,52.4044944 17.7977528,53.2977685 17.7977528,54.3985915 L17.7977528,57.3307282 Z" id="Fill-117" fill="#D4D4D4"></path>
                    <path d="M28.6741573,57.3307282 C28.6741573,58.4325686 27.8106637,59.3258427 26.7465407,59.3258427 L22.6916615,59.3258427 C21.6275385,59.3258427 20.7640449,58.4325686 20.7640449,57.3307282 L20.7640449,54.3985915 C20.7640449,53.2977685 21.6275385,52.4044944 22.6916615,52.4044944 L26.7465407,52.4044944 C27.8106637,52.4044944 28.6741573,53.2977685 28.6741573,54.3985915 L28.6741573,57.3307282 Z" id="Fill-119" fill="#D4D4D4"></path>
                    <path d="M39.5505618,57.3307282 C39.5505618,58.4325686 38.7188113,59.3258427 37.6916896,59.3258427 L32.5105576,59.3258427 C31.4843843,59.3258427 30.6516854,58.4325686 30.6516854,57.3307282 L30.6516854,54.3985915 C30.6516854,53.2977685 31.4843843,52.4044944 32.5105576,52.4044944 L37.6916896,52.4044944 C38.7188113,52.4044944 39.5505618,53.2977685 39.5505618,54.3985915 L39.5505618,57.3307282 Z" id="Fill-121" fill="#D4D4D4"></path>
                    <path d="M17.7977528,68.2071327 C17.7977528,69.3089731 16.9351355,70.2022472 15.8698965,70.2022472 L11.8154967,70.2022472 C10.7502578,70.2022472 9.88764045,69.3089731 9.88764045,68.2071327 L9.88764045,65.274996 C9.88764045,64.1731556 10.7502578,63.2808989 11.8154967,63.2808989 L15.8698965,63.2808989 C16.9351355,63.2808989 17.7977528,64.1731556 17.7977528,65.274996 L17.7977528,68.2071327 Z" id="Fill-123" fill="#D4D4D4"></path>
                    <path d="M28.6741573,68.2071327 C28.6741573,69.3089731 27.8106637,70.2022472 26.7465407,70.2022472 L22.6916615,70.2022472 C21.6275385,70.2022472 20.7640449,69.3089731 20.7640449,68.2071327 L20.7640449,65.274996 C20.7640449,64.1731556 21.6275385,63.2808989 22.6916615,63.2808989 L26.7465407,63.2808989 C27.8106637,63.2808989 28.6741573,64.1731556 28.6741573,65.274996 L28.6741573,68.2071327 Z" id="Fill-125" fill="#D4D4D4"></path>
                    <path d="M17.7977528,81.0610653 C17.7977528,82.1629057 16.9351355,83.0561798 15.8698965,83.0561798 L11.8154967,83.0561798 C10.7502578,83.0561798 9.88764045,82.1629057 9.88764045,81.0610653 L9.88764045,78.1289286 C9.88764045,77.0270882 10.7502578,76.1348315 11.8154967,76.1348315 L15.8698965,76.1348315 C16.9351355,76.1348315 17.7977528,77.0270882 17.7977528,78.1289286 L17.7977528,81.0610653 Z" id="Fill-127" fill="#D4D4D4"></path>
                    <path d="M28.6741573,81.0610653 C28.6741573,82.1629057 27.8106637,83.0561798 26.7465407,83.0561798 L22.6916615,83.0561798 C21.6275385,83.0561798 20.7640449,82.1629057 20.7640449,81.0610653 L20.7640449,78.1289286 C20.7640449,77.0270882 21.6275385,76.1348315 22.6916615,76.1348315 L26.7465407,76.1348315 C27.8106637,76.1348315 28.6741573,77.0270882 28.6741573,78.1289286 L28.6741573,81.0610653 Z" id="Fill-129" fill="#D4D4D4"></path>
                    <path d="M41.5280899,69.1730427 C41.5280899,69.7400408 40.6358332,70.2022472 39.5339928,70.2022472 L36.6018561,70.2022472 C35.5000157,70.2022472 34.6067416,69.7400408 34.6067416,69.1730427 L34.6067416,62.3316397 C34.6067416,61.7637059 35.5000157,61.3033708 36.6018561,61.3033708 L39.5339928,61.3033708 C40.6358332,61.3033708 41.5280899,61.7637059 41.5280899,62.3316397 L41.5280899,69.1730427 Z" id="Fill-131" fill="#BF2027"></path>
                    <path d="M40.5393258,81.3463358 C40.5393258,82.2911033 39.9843353,83.0561798 39.3003756,83.0561798 L35.8467489,83.0561798 C35.1617321,83.0561798 34.6067416,82.2911033 34.6067416,81.3463358 L34.6067416,78.8334395 C34.6067416,77.8895982 35.1617321,77.1235955 35.8467489,77.1235955 L39.3003756,77.1235955 C39.9843353,77.1235955 40.5393258,77.8895982 40.5393258,78.8334395 L40.5393258,81.3463358 Z" id="Fill-153" fill="#098043"></path>
                    <g id="approved" transform="translate(4.943820, 19.775281)">
                        <path d="M38.3756412,1.13944271 C39.0761654,1.64698575 39.5209978,2.39879293 39.5209978,3.23447424 L39.5209978,24.2323069 C39.5209978,25.7539782 38.0526831,26.9649578 36.230391,26.9649578 L3.60809888,26.9649578 C2.81076297,26.9649578 2.07860247,26.7399964 1.50520936,26.3461073 L1.50351461,26.3472659 C0.774795506,25.8427765 0.322930337,25.0829663 0.322930337,24.2329222 L0.322930337,3.23406409 C0.322930337,1.71444361 1.78630112,0.47167707 3.60859326,0.47167707 L36.2308854,0.47167707 C37.0505708,0.47167707 37.8030202,0.72289638 38.3774921,1.13817728 L38.3756412,1.13944271 Z" id="Combined-Shape" fill="url(#linearGradient-1)"></path>
                        <path d="M37.2034719,0.570045532 L0.321584305,25.7688803 C0.897044979,26.1687804 1.63466296,26.3974413 2.43852813,26.3974413 L35.0608203,26.3974413 C36.8831124,26.3974413 38.351427,25.1864617 38.351427,23.6647904 L38.351427,2.66695772 C38.351427,1.83024362 37.9054944,1.07761107 37.2034719,0.570045532" id="Fill-135" fill-opacity="0.1" fill="#FFFFFF" transform="translate(19.336506, 13.483743) rotate(-180.000000) translate(-19.336506, -13.483743) "></path>
                        <path d="M8.83035506,14.6237323 L8.60195056,13.8177798 C8.53669213,13.5911697 8.47143371,13.3102142 8.41705169,13.0846295 L8.40617528,13.0846295 C8.35179326,13.3102142 8.29741124,13.597322 8.23808539,13.8177798 L8.0205573,14.6237323 L8.83035506,14.6237323 Z M7.90091685,15.2656233 L7.63988315,16.2407644 L6.78064719,16.2407644 L7.90091685,12.4417132 L8.98756854,12.4417132 L10.1236584,16.2407644 L9.23278202,16.2407644 L8.94999551,15.2656233 L7.90091685,15.2656233 Z" id="Fill-137" fill="#FFFFFF"></path>
                        <path d="M11.4340674,14.2171672 C11.5042697,14.2345988 11.5912809,14.2397257 11.7109213,14.2397257 C12.1519101,14.2397257 12.4228315,14.0090141 12.4228315,13.6203932 C12.4228315,13.2707369 12.1894831,13.0615584 11.7761798,13.0615584 C11.6080899,13.0615584 11.494382,13.0789899 11.4340674,13.0953961 L11.4340674,14.2171672 Z M10.6133933,12.4924697 C10.8684944,12.4473528 11.2274157,12.4135151 11.7326742,12.4135151 C12.2438652,12.4135151 12.6077303,12.5150282 12.8529438,12.7180544 C13.0862921,12.9098014 13.2444944,13.22562 13.2444944,13.5978347 C13.2444944,13.9700494 13.1238652,14.2848426 12.9073258,14.4991481 C12.6245393,14.776002 12.2062921,14.8990482 11.7168539,14.8990482 C11.6080899,14.8990482 11.5102022,14.8939213 11.4340674,14.8816166 L11.4340674,16.2412771 L10.6133933,16.2412771 L10.6133933,12.4924697 Z" id="Fill-139" fill="#FFFFFF"></path>
                        <path d="M14.591982,14.2171672 C14.663173,14.2345988 14.7501843,14.2397257 14.8698247,14.2397257 C15.3098247,14.2397257 15.5807461,14.0090141 15.5807461,13.6203932 C15.5807461,13.2707369 15.3473978,13.0615584 14.9350831,13.0615584 C14.7660045,13.0615584 14.6522966,13.0789899 14.591982,13.0953961 L14.591982,14.2171672 Z M13.7713079,12.4924697 C14.026409,12.4473528 14.3863191,12.4135151 14.8905888,12.4135151 C15.4017798,12.4135151 15.7656449,12.5150282 16.0108584,12.7180544 C16.2442067,12.9098014 16.402409,13.22562 16.402409,13.5978347 C16.402409,13.9700494 16.2827685,14.2848426 16.0652404,14.4991481 C15.7824539,14.776002 15.3642067,14.8990482 14.8747685,14.8990482 C14.7660045,14.8990482 14.6681169,14.8939213 14.591982,14.8816166 L14.591982,16.2412771 L13.7713079,16.2412771 L13.7713079,12.4924697 Z" id="Fill-141" fill="#FFFFFF"></path>
                        <path d="M17.7504899,14.1270359 L18.076782,14.1270359 C18.4900854,14.1270359 18.7343101,13.9127304 18.7343101,13.5805057 C18.7343101,13.2308494 18.5059056,13.056534 18.1252315,13.0503817 C17.9245124,13.0503817 17.8108045,13.0678132 17.7504899,13.0790925 L17.7504899,14.1270359 Z M16.9298157,12.4925723 C17.1957933,12.4474553 17.5922876,12.4136176 18.0332764,12.4136176 C18.5761079,12.4136176 18.956782,12.4976992 19.2178157,12.7120047 C19.4353438,12.8924724 19.5549843,13.1580471 19.5549843,13.5077034 C19.5549843,13.9916851 19.2237483,14.3239098 18.9083326,14.4428544 L18.9083326,14.4592606 C19.1634337,14.566926 19.304827,14.8212215 19.3977708,15.1708777 C19.5114787,15.5984633 19.6251865,16.0947496 19.6963775,16.2413796 L18.848018,16.2413796 C18.7886921,16.1337142 18.7016809,15.8240479 18.5929169,15.355447 C18.4950292,14.8817192 18.3378157,14.7525207 18.0006472,14.7463684 L17.7504899,14.7463684 L17.7504899,16.2413796 L16.9298157,16.2413796 L16.9298157,12.4925723 Z" id="Fill-143" fill="#FFFFFF"></path>
                        <path d="M20.8379056,14.3524155 C20.8379056,15.0968449 21.1750742,15.6208166 21.728782,15.6208166 C22.2894112,15.6208166 22.6097708,15.0681342 22.6097708,14.3308824 C22.6097708,13.647976 22.2943551,13.0614558 21.7238382,13.0614558 C21.1641978,13.0614558 20.8379056,13.6141383 20.8379056,14.3524155 M23.484827,14.3021716 C23.484827,15.5480143 22.7561079,16.3026976 21.6852764,16.3026976 C20.5986247,16.3026976 19.9628494,15.4516281 19.9628494,14.369847 C19.9628494,13.2306444 20.6638831,12.3795749 21.745591,12.3795749 C22.8708045,12.3795749 23.484827,13.2542282 23.484827,14.3021716" id="Fill-145" fill="#FFFFFF"></path>
                        <path d="M24.8547596,16.2409695 L23.6810966,12.4419183 L24.588782,12.4419183 L25.0347146,14.0476711 C25.1592989,14.4998658 25.2730067,14.9336037 25.360018,15.4073315 L25.376827,15.4073315 C25.4697708,14.9500098 25.5834787,14.4998658 25.7080629,14.0651026 L26.1757483,12.4419183 L27.0567371,12.4419183 L25.8227596,16.2409695 L24.8547596,16.2409695 Z" id="Fill-147" fill="#FFFFFF"></path>
                        <polygon id="Fill-149" fill="#FFFFFF" points="29.6277213 14.6348065 28.2790472 14.6348065 28.2790472 15.5371452 29.7849348 15.5371452 29.7849348 16.2405593 27.4474966 16.2405593 27.4474966 12.4415081 29.7088 12.4415081 29.7088 13.146973 28.2790472 13.146973 28.2790472 13.935494 29.6277213 13.935494"></polygon>
                        <path d="M31.1823551,15.5930287 C31.2525573,15.6104603 31.3672539,15.6104603 31.4700854,15.6104603 C32.2205573,15.6145618 32.7090067,15.1869763 32.7090067,14.2795106 C32.7149393,13.4899642 32.2690067,13.0726325 31.5570966,13.0726325 C31.3721978,13.0726325 31.2525573,13.0900641 31.1823551,13.1064702 L31.1823551,15.5930287 Z M30.3508045,12.4932901 C30.6553438,12.4420208 31.0518382,12.41331 31.4700854,12.41331 C32.1661753,12.41331 32.6170517,12.5425085 32.9710292,12.8193625 C33.3507146,13.1126226 33.5899955,13.5801981 33.5899955,14.2507998 C33.5899955,14.9777978 33.3348944,15.4802364 32.9809169,15.7899026 C32.5952989,16.1231527 32.007973,16.281062 31.2911191,16.281062 C30.8619955,16.281062 30.5574562,16.2523512 30.3508045,16.2236404 L30.3508045,12.4932901 Z" id="Fill-151" fill="#FFFFFF"></path>
                        <path d="M35.6235865,10.466104 C35.6235865,8.19590179 33.8527101,6.34713275 31.6635865,6.34713275 L8.71239551,6.34713275 C6.52327191,6.34713275 4.73360899,8.19590179 4.73360899,10.466104 L4.73360899,18.1646941 C4.73360899,20.4348964 6.52327191,22.25598 8.71239551,22.25598 L31.6635865,22.25598 C33.8527101,22.25598 35.6235865,20.4348964 35.6235865,18.1646941 L35.6235865,10.466104 Z M31.6695191,22.8650587 L8.7015191,22.8650587 C7.49918202,22.8650587 6.38385618,22.3780008 5.5335191,21.4961698 C4.68318202,20.6143387 4.23032809,19.4412984 4.23032809,18.1944303 L4.23032809,10.4886625 C4.23032809,9.24179442 4.68318202,8.05132251 5.5335191,7.16846608 C6.38385618,6.28663504 7.49918202,5.78317104 8.7015191,5.78317104 L31.6695191,5.78317104 C32.8728449,5.78317104 34.0010247,6.28663504 34.8513618,7.16846608 C35.7026876,8.05132251 36.1683955,9.24179442 36.1683955,10.4886625 L36.1683955,18.1944303 C36.1683955,19.4412984 35.7026876,20.6143387 34.8513618,21.4961698 C34.0010247,22.3780008 32.8728449,22.8650587 31.6695191,22.8650587 Z" id="Fill-155" fill="#FFFFFF"></path>
                    </g>
                    <polyline id="Fill-157" fill="#DFDFDF" points="10.8764045 0 10.8764045 14.8314607 37.5730337 14.8314607 37.5730337 9.90198145 37.4401357 0"></polyline>
                    <path d="M0,7.91110112 L0.107775281,7.91110112 C0.0721797753,7.91110112 0.0365842697,7.91011236 0,7.91011236 L0,7.91110112 Z" id="Fill-159" fill="#A2A0A5"></path>
                    <polygon id="Fill-161" fill="#A2A0A5" points="11.8651685 4.53644944 33.6179775 4.53644944 33.6179775 3.95505618 11.8651685 3.95505618"></polygon>
                    <polygon id="Fill-163" fill="#A2A0A5" points="11.8651685 7.50274157 33.6179775 7.50274157 33.6179775 6.92134831 11.8651685 6.92134831"></polygon>
                    <polygon id="Fill-164" fill="#A2A0A5" points="11.8651685 9.48026966 36.5842697 9.48026966 36.5842697 8.8988764 11.8651685 8.8988764"></polygon>
                    <polygon id="Fill-165" fill="#A2A0A5" points="11.8651685 12.4465618 36.5842697 12.4465618 36.5842697 11.8651685 11.8651685 11.8651685"></polygon>
                    <path d="M23.7303371,55.3707865 C23.7303371,43.903612 33.0272075,34.6067416 44.494382,34.6067416 C55.9625577,34.6067416 65.258427,43.903612 65.258427,55.3707865 C65.258427,66.8389621 55.9625577,76.1348315 44.494382,76.1348315 C33.0272075,76.1348315 23.7303371,66.8389621 23.7303371,55.3707865" id="Fill-199" fill="#87C13F"></path>
                    <polyline id="Stroke-200" stroke="#FFFFFF" stroke-width="1.875" points="52.4044944 50.4269663 42.0519493 60.3146067 36.5842697 55.0919715"></polyline>
                </g>
            </g>
        </g>
    </g>
</svg>