<?xml version="1.0" encoding="UTF-8"?>
<svg width="68px" height="84px" viewBox="0 0 68 84" version="1.1" xmlns="http://www.w3.org/2000/svg" xmlns:xlink="http://www.w3.org/1999/xlink">
    <!-- Generator: sketchtool 51.2 (57519) - http://www.bohemiancoding.com/sketch -->
    <title>06368215-AF35-4C98-AD54-10A23639D05C</title>
    <desc>Created with sketchtool.</desc>
    <defs>
        <linearGradient x1="50%" y1="0%" x2="50%" y2="100%" id="linearGradient-1">
            <stop stop-color="#B5075C" offset="0%"></stop>
            <stop stop-color="#E62343" offset="100%"></stop>
        </linearGradient>
    </defs>
    <g id="Page-1" stroke="none" stroke-width="1" fill="none" fill-rule="evenodd">
        <g id="Website" transform="translate(-437.000000, -884.000000)">
            <g id="Step-1" transform="translate(370.000000, 880.000000)">
                <g id="Register-illustration" transform="translate(67.000000, 4.000000)">
                    <path d="M1.8702,20.9551 C1.8702,21.4101 1.5002,21.7801 1.0442,21.7801 C0.5892,21.7801 0.2192,21.4101 0.2192,20.9551 L0.2192,15.6371 C0.2192,15.1801 0.5892,14.8101 1.0442,14.8101 C1.5002,14.8101 1.8702,15.1801 1.8702,15.6371 L1.8702,20.9551 Z" id="Fill-169" fill="#223B51"></path>
                    <path d="M5.622,73.823 L41.622,73.823 L41.622,7.823 L5.622,7.823 L5.622,73.823 Z M42.581,0.823 L5.652,0.823 C3.222,0.823 1.622,2.696 1.622,5.4 L1.622,79.923 C1.622,82.627 3.222,83.823 5.652,83.823 L42.581,83.823 C45.011,83.823 47.622,82.627 47.622,79.923 L47.622,5.4 C47.622,2.696 45.011,0.823 42.581,0.823 Z" id="Fill-171" fill="#DFDFDF"></path>
                    <path d="M25.4693,3.3809 C25.4693,3.6859 25.2223,3.9339 24.9163,3.9339 L17.0803,3.9339 C16.7763,3.9339 16.5283,3.6859 16.5283,3.3809 C16.5283,3.0749 16.7763,2.8269 17.0803,2.8269 L24.9163,2.8269 C25.2223,2.8269 25.4693,3.0749 25.4693,3.3809" id="Fill-173" fill="#000000"></path>
                    <path d="M28.0831,3.3809 C28.0831,3.6859 27.8351,3.9339 27.5301,3.9339 L27.0161,3.9339 C26.7101,3.9339 26.4631,3.6859 26.4631,3.3809 C26.4631,3.0749 26.7101,2.8269 27.0161,2.8269 L27.5301,2.8269 C27.8351,2.8269 28.0831,3.0749 28.0831,3.3809" id="Fill-174" fill="#000000"></path>
                    <path d="M9.755,26.012 C9.755,33.672 15.963,39.88 23.622,39.88 C31.28,39.88 37.489,33.672 37.489,26.012 C37.489,18.353 31.28,12.145 23.622,12.145 C15.963,12.145 9.755,18.353 9.755,26.012" id="Fill-176" fill="#DFDFDF"></path>
                    <polygon id="Fill-191" fill="#DFDFDF" points="9.755 53.217 37.489 53.217 37.489 45.217 9.755 45.217"></polygon>
                    <polygon id="Fill-193" fill="#DFDFDF" points="9.755 65.013 37.489 65.013 37.489 57.013 9.755 57.013"></polygon>
                    <g id="circle" transform="translate(26.000000, 29.000000)" fill="url(#linearGradient-1)">
                        <path d="M0.3731,21.54 C0.3731,10.085 9.6601,0.798 21.1151,0.798 C32.5711,0.798 41.8571,10.085 41.8571,21.54 C41.8571,32.996 32.5711,42.282 21.1151,42.282 C9.6601,42.282 0.3731,32.996 0.3731,21.54" id="Fill-183"></path>
                    </g>
                    <g id="Register" transform="translate(33.000000, 40.000000)" fill="#FFFFFF">
                        <path d="M4.9996,5.4991 L17.9976,5.4991 C18.2736,5.4991 18.4976,5.2751 18.4976,4.9991 C18.4976,4.7231 18.2736,4.4991 17.9976,4.4991 L4.9996,4.4991 C4.7236,4.4991 4.4996,4.7231 4.4996,4.9991 C4.4996,5.2751 4.7236,5.4991 4.9996,5.4991" id="Fill-1"></path>
                        <path d="M4.9996,8.832 L15.6646,8.832 C15.9406,8.832 16.1646,8.608 16.1646,8.332 C16.1646,8.056 15.9406,7.832 15.6646,7.832 L4.9996,7.832 C4.7236,7.832 4.4996,8.056 4.4996,8.332 C4.4996,8.608 4.7236,8.832 4.9996,8.832" id="Fill-3"></path>
                        <path d="M10.3321,11.1649 L4.9991,11.1649 C4.7241,11.1649 4.4991,11.3889 4.4991,11.6649 C4.4991,11.9409 4.7241,12.1649 4.9991,12.1649 L10.3321,12.1649 C10.6081,12.1649 10.8321,11.9409 10.8321,11.6649 C10.8321,11.3889 10.6081,11.1649 10.3321,11.1649" id="Fill-5"></path>
                        <path d="M26.0135,8.8959 L24.4315,7.3149 L26.6665,5.0799 L28.2485,6.6609 L26.0135,8.8959 Z M25.9965,17.3309 C25.9965,17.5109 25.8435,17.6639 25.6625,17.6639 L18.6595,17.6639 L25.9965,10.3269 L25.9965,17.3309 Z M13.7365,20.9009 L11.7725,21.5549 L12.4275,19.5909 C12.4685,19.4689 12.5655,19.2889 12.6695,19.1319 L14.1955,20.6569 C14.0375,20.7619 13.8565,20.8609 13.7365,20.9009 Z M14.9305,19.9789 L13.3485,18.3969 L23.7245,8.0209 L25.3065,9.6029 L14.9305,19.9789 Z M1.0005,17.3309 L1.0005,1.3329 C1.0005,1.1529 1.1525,0.9999 1.3335,0.9999 L25.6625,0.9999 C25.8435,0.9999 25.9965,1.1529 25.9965,1.3329 L25.9965,4.3369 L25.2225,5.1099 L24.7955,4.6819 C24.5685,4.4549 24.2675,4.3409 23.9705,4.3419 C23.6745,4.3409 23.3725,4.4549 23.1455,4.6829 L19.1245,8.7039 C18.9285,8.8999 18.9285,9.2159 19.1245,9.4109 C19.3195,9.6069 19.6355,9.6069 19.8305,9.4109 L23.8525,5.3889 C23.8845,5.3569 23.9255,5.3419 23.9705,5.3409 C24.0165,5.3419 24.0565,5.3569 24.0885,5.3889 L24.5165,5.8159 L12.6685,17.6639 L1.3335,17.6639 C1.1525,17.6639 1.0005,17.5109 1.0005,17.3309 Z M29.1905,6.1899 L27.1375,4.1369 C27.0945,4.0939 27.0465,4.0609 26.9955,4.0329 L26.9955,1.3329 C26.9955,0.5999 26.3955,-0.0001 25.6625,-0.0001 L1.3335,-0.0001 C0.5995,-0.0001 0.0005,0.5999 0.0005,1.3329 L0.0005,17.3309 C0.0005,18.0639 0.5995,18.6639 1.3335,18.6639 L11.7835,18.6639 C11.6525,18.8719 11.5395,19.0939 11.4785,19.2759 L10.4025,22.5039 C10.3095,22.7829 10.4125,22.9599 10.6365,22.9599 C10.6915,22.9599 10.7545,22.9489 10.8235,22.9259 L14.0525,21.8499 C14.3995,21.7339 14.8965,21.4269 15.1555,21.1679 L17.6605,18.6639 L25.6625,18.6639 C26.3965,18.6639 26.9965,18.0639 26.9965,17.3309 L26.9965,9.3279 L29.1905,7.1329 C29.4505,6.8739 29.4505,6.4489 29.1905,6.1899 Z" id="Fill-7"></path>
                    </g>
                </g>
            </g>
        </g>
    </g>
</svg>