<?xml version="1.0" encoding="UTF-8"?>
<svg width="110px" height="92px" viewBox="0 0 110 92" version="1.1" xmlns="http://www.w3.org/2000/svg" xmlns:xlink="http://www.w3.org/1999/xlink">
    <!-- Generator: sketchtool 51.2 (57519) - http://www.bohemiancoding.com/sketch -->
    <title>EB26868D-9D83-47EC-8AE3-906B3FE08D9A</title>
    <desc>Created with sketchtool.</desc>
    <defs>
        <linearGradient x1="50%" y1="0%" x2="50%" y2="100%" id="linearGradient-1">
            <stop stop-color="#B5075C" offset="0%"></stop>
            <stop stop-color="#E62343" offset="100%"></stop>
        </linearGradient>
    </defs>
    <g id="Page-1" stroke="none" stroke-width="1" fill="none" fill-rule="evenodd">
        <g id="Website" transform="translate(-1252.000000, -882.000000)">
            <g id="Step-3" transform="translate(1179.000000, 880.000000)">
                <g id="transact" transform="translate(72.000000, 2.000000)">
                    <g id="eftpos">
                        <path d="M38.0559,10 L25.4629,10 L25.4629,32.15 L25.4629,48.326 L25.4339,87.517 L41.5489,87.521 C42.4729,87.521 43.2509,86.849 43.2509,86.03 L44.9659,46.34 C47.8479,44.459 49.7249,41.418 49.7249,37.985 L49.7249,20.333 C49.7249,14.623 44.5059,10 38.0559,10" id="Fill-111" fill="#CCCBCD"></path>
                        <path d="M13.1119,10 C6.6619,10 1.4339,14.623 1.4339,20.333 L1.4339,37.985 C1.4339,41.418 3.3109,44.459 6.2259,46.34 L8.0969,86.03 C8.0969,86.849 8.8509,87.521 9.7759,87.521 L25.4619,87.521 L25.4619,48.326 L25.4619,32.15 L25.4619,10 L13.1119,10 Z" id="Fill-113" fill="#DFDFDF"></path>
                        <path d="M43.3909,15.524 C43.3909,16.366 42.7079,17.048 41.8669,17.048 L8.9579,17.048 C8.1169,17.048 7.4339,16.366 7.4339,15.524 C7.4339,14.682 8.1169,14 8.9579,14 L41.8669,14 C42.7079,14 43.3909,14.682 43.3909,15.524" id="Fill-115" fill="#969697"></path>
                        <path d="M18.4759,56.842 C18.4759,57.925 17.5989,58.803 16.5159,58.803 L12.3939,58.803 C11.3109,58.803 10.4339,57.925 10.4339,56.842 L10.4339,53.96 C10.4339,52.878 11.3109,52 12.3939,52 L16.5159,52 C17.5989,52 18.4759,52.878 18.4759,53.96 L18.4759,56.842 Z" id="Fill-117" fill="#D4D4D4"></path>
                        <path d="M29.4769,56.842 C29.4769,57.925 28.5989,58.803 27.5169,58.803 L23.3939,58.803 C22.3119,58.803 21.4339,57.925 21.4339,56.842 L21.4339,53.96 C21.4339,52.878 22.3119,52 23.3939,52 L27.5169,52 C28.5989,52 29.4769,52.878 29.4769,53.96 L29.4769,56.842 Z" id="Fill-119" fill="#D4D4D4"></path>
                        <path d="M41.8169,56.842 C41.8169,57.925 40.9399,58.803 39.8569,58.803 L34.3939,58.803 C33.3119,58.803 32.4339,57.925 32.4339,56.842 L32.4339,53.96 C32.4339,52.878 33.3119,52 34.3939,52 L39.8569,52 C40.9399,52 41.8169,52.878 41.8169,53.96 L41.8169,56.842 Z" id="Fill-121" fill="#D4D4D4"></path>
                        <path d="M18.4759,68.842 C18.4759,69.925 17.5989,70.803 16.5159,70.803 L12.3939,70.803 C11.3109,70.803 10.4339,69.925 10.4339,68.842 L10.4339,65.96 C10.4339,64.877 11.3109,64 12.3939,64 L16.5159,64 C17.5989,64 18.4759,64.877 18.4759,65.96 L18.4759,68.842 Z" id="Fill-123" fill="#D4D4D4"></path>
                        <path d="M29.4769,68.842 C29.4769,69.925 28.5989,70.803 27.5169,70.803 L23.3939,70.803 C22.3119,70.803 21.4339,69.925 21.4339,68.842 L21.4339,65.96 C21.4339,64.877 22.3119,64 23.3939,64 L27.5169,64 C28.5989,64 29.4769,64.877 29.4769,65.96 L29.4769,68.842 Z" id="Fill-125" fill="#D4D4D4"></path>
                        <path d="M18.4759,80.842 C18.4759,81.925 17.5989,82.803 16.5159,82.803 L12.3939,82.803 C11.3109,82.803 10.4339,81.925 10.4339,80.842 L10.4339,77.96 C10.4339,76.877 11.3109,76 12.3939,76 L16.5159,76 C17.5989,76 18.4759,76.877 18.4759,77.96 L18.4759,80.842 Z" id="Fill-127" fill="#D4D4D4"></path>
                        <path d="M29.4769,80.842 C29.4769,81.925 28.5989,82.803 27.5169,82.803 L23.3939,82.803 C22.3119,82.803 21.4339,81.925 21.4339,80.842 L21.4339,77.96 C21.4339,76.877 22.3119,76 23.3939,76 L27.5169,76 C28.5989,76 29.4769,76.877 29.4769,77.96 L29.4769,80.842 Z" id="Fill-129" fill="#D4D4D4"></path>
                        <path d="M41.2369,70.411 C41.2369,71.017 40.3599,71.511 39.2769,71.511 L36.3949,71.511 C35.3119,71.511 34.4339,71.017 34.4339,70.411 L34.4339,63.099 C34.4339,62.492 35.3119,62 36.3949,62 L39.2769,62 C40.3599,62 41.2369,62.492 41.2369,63.099 L41.2369,70.411 Z" id="Fill-131" fill="#BF2027"></path>
                        <path d="M40.0459,81.559 C40.0459,82.579 39.5209,83.405 38.8739,83.405 L35.6069,83.405 C34.9589,83.405 34.4339,82.579 34.4339,81.559 L34.4339,78.846 C34.4339,77.827 34.9589,77 35.6069,77 L38.8739,77 C39.5209,77 40.0459,77.827 40.0459,78.846 L40.0459,81.559 Z" id="Fill-153" fill="#098043"></path>
                        <g id="approved" transform="translate(5.433900, 20.000000)">
                            <path d="M38.811728,1.1112341 C39.5202127,1.60621215 39.9701,2.33940723 39.9701,3.1544 L39.9701,23.6324 C39.9701,25.1164 38.4851,26.2974 36.6421,26.2974 L3.6491,26.2974 C2.84270346,26.2974 2.10222295,26.0780079 1.52231401,25.6938701 L1.5206,25.695 C0.7836,25.203 0.3266,24.462 0.3266,23.633 L0.3266,3.154 C0.3266,1.672 1.8066,0.46 3.6496,0.46 L36.6426,0.46 C37.4716,0.46 38.2326,0.705 38.8136,1.11 L38.811728,1.1112341 Z" id="Combined-Shape" fill="url(#linearGradient-1)"></path>
                            <path d="M37.6262387,0.555933203 L0.325238672,25.1309332 C0.907238672,25.5209332 1.65323867,25.7439332 2.46623867,25.7439332 L35.4592387,25.7439332 C37.3022387,25.7439332 38.7872387,24.5629332 38.7872387,23.0789332 L38.7872387,2.6009332 C38.7872387,1.7849332 38.3362387,1.0509332 37.6262387,0.555933203" id="Fill-135" fill-opacity="0.1" fill="#FFFFFF" transform="translate(19.556239, 13.149933) rotate(-180.000000) translate(-19.556239, -13.149933) "></path>
                            <path d="M8.9307,14.2617 L8.6997,13.4757 C8.6337,13.2547 8.5677,12.9807 8.5127,12.7607 L8.5017,12.7607 C8.4467,12.9807 8.3917,13.2607 8.3317,13.4757 L8.1117,14.2617 L8.9307,14.2617 Z M7.9907,14.8877 L7.7267,15.8387 L6.8577,15.8387 L7.9907,12.1337 L9.0897,12.1337 L10.2387,15.8387 L9.3377,15.8387 L9.0517,14.8877 L7.9907,14.8877 Z" id="Fill-137" fill="#FFFFFF"></path>
                            <path d="M11.564,13.8652 C11.635,13.8822 11.723,13.8872 11.844,13.8872 C12.29,13.8872 12.564,13.6622 12.564,13.2832 C12.564,12.9422 12.328,12.7382 11.91,12.7382 C11.74,12.7382 11.625,12.7552 11.564,12.7712 L11.564,13.8652 Z M10.734,12.1832 C10.992,12.1392 11.355,12.1062 11.866,12.1062 C12.383,12.1062 12.751,12.2052 12.999,12.4032 C13.235,12.5902 13.395,12.8982 13.395,13.2612 C13.395,13.6242 13.273,13.9312 13.054,14.1402 C12.768,14.4102 12.345,14.5302 11.85,14.5302 C11.74,14.5302 11.641,14.5252 11.564,14.5132 L11.564,15.8392 L10.734,15.8392 L10.734,12.1832 Z" id="Fill-139" fill="#FFFFFF"></path>
                            <path d="M14.7578,13.8652 C14.8298,13.8822 14.9178,13.8872 15.0388,13.8872 C15.4838,13.8872 15.7578,13.6622 15.7578,13.2832 C15.7578,12.9422 15.5218,12.7382 15.1048,12.7382 C14.9338,12.7382 14.8188,12.7552 14.7578,12.7712 L14.7578,13.8652 Z M13.9278,12.1832 C14.1858,12.1392 14.5498,12.1062 15.0598,12.1062 C15.5768,12.1062 15.9448,12.2052 16.1928,12.4032 C16.4288,12.5902 16.5888,12.8982 16.5888,13.2612 C16.5888,13.6242 16.4678,13.9312 16.2478,14.1402 C15.9618,14.4102 15.5388,14.5302 15.0438,14.5302 C14.9338,14.5302 14.8348,14.5252 14.7578,14.5132 L14.7578,15.8392 L13.9278,15.8392 L13.9278,12.1832 Z" id="Fill-141" fill="#FFFFFF"></path>
                            <path d="M17.9522,13.7773 L18.2822,13.7773 C18.7002,13.7773 18.9472,13.5683 18.9472,13.2443 C18.9472,12.9033 18.7162,12.7333 18.3312,12.7273 C18.1282,12.7273 18.0132,12.7443 17.9522,12.7553 L17.9522,13.7773 Z M17.1222,12.1833 C17.3912,12.1393 17.7922,12.1063 18.2382,12.1063 C18.7872,12.1063 19.1722,12.1883 19.4362,12.3973 C19.6562,12.5733 19.7772,12.8323 19.7772,13.1733 C19.7772,13.6453 19.4422,13.9693 19.1232,14.0853 L19.1232,14.1013 C19.3812,14.2063 19.5242,14.4543 19.6182,14.7953 C19.7332,15.2123 19.8482,15.6963 19.9202,15.8393 L19.0622,15.8393 C19.0022,15.7343 18.9142,15.4323 18.8042,14.9753 C18.7052,14.5133 18.5462,14.3873 18.2052,14.3813 L17.9522,14.3813 L17.9522,15.8393 L17.1222,15.8393 L17.1222,12.1833 Z" id="Fill-143" fill="#FFFFFF"></path>
                            <path d="M21.0747,13.9971 C21.0747,14.7231 21.4157,15.2341 21.9757,15.2341 C22.5427,15.2341 22.8667,14.6951 22.8667,13.9761 C22.8667,13.3101 22.5477,12.7381 21.9707,12.7381 C21.4047,12.7381 21.0747,13.2771 21.0747,13.9971 M23.7517,13.9481 C23.7517,15.1631 23.0147,15.8991 21.9317,15.8991 C20.8327,15.8991 20.1897,15.0691 20.1897,14.0141 C20.1897,12.9031 20.8987,12.0731 21.9927,12.0731 C23.1307,12.0731 23.7517,12.9261 23.7517,13.9481" id="Fill-145" fill="#FFFFFF"></path>
                            <path d="M25.1372,15.8389 L23.9502,12.1339 L24.8682,12.1339 L25.3192,13.6999 C25.4452,14.1409 25.5602,14.5639 25.6482,15.0259 L25.6652,15.0259 C25.7592,14.5799 25.8742,14.1409 26.0002,13.7169 L26.4732,12.1339 L27.3642,12.1339 L26.1162,15.8389 L25.1372,15.8389 Z" id="Fill-147" fill="#FFFFFF"></path>
                            <polygon id="Fill-149" fill="#FFFFFF" points="29.9644 14.2725 28.6004 14.2725 28.6004 15.1525 30.1234 15.1525 30.1234 15.8385 27.7594 15.8385 27.7594 12.1335 30.0464 12.1335 30.0464 12.8215 28.6004 12.8215 28.6004 13.5905 29.9644 13.5905"></polygon>
                            <path d="M31.5367,15.207 C31.6077,15.224 31.7237,15.224 31.8277,15.224 C32.5867,15.228 33.0807,14.811 33.0807,13.926 C33.0867,13.156 32.6357,12.749 31.9157,12.749 C31.7287,12.749 31.6077,12.766 31.5367,12.782 L31.5367,15.207 Z M30.6957,12.184 C31.0037,12.134 31.4047,12.106 31.8277,12.106 C32.5317,12.106 32.9877,12.232 33.3457,12.502 C33.7297,12.788 33.9717,13.244 33.9717,13.898 C33.9717,14.607 33.7137,15.097 33.3557,15.399 C32.9657,15.724 32.3717,15.878 31.6467,15.878 C31.2127,15.878 30.9047,15.85 30.6957,15.822 L30.6957,12.184 Z" id="Fill-151" fill="#FFFFFF"></path>
                            <path d="M36.0284,10.207 C36.0284,7.993 34.2374,6.19 32.0234,6.19 L8.8114,6.19 C6.5974,6.19 4.7874,7.993 4.7874,10.207 L4.7874,17.715 C4.7874,19.929 6.5974,21.705 8.8114,21.705 L32.0234,21.705 C34.2374,21.705 36.0284,19.929 36.0284,17.715 L36.0284,10.207 Z M32.0294,22.299 L8.8004,22.299 C7.5844,22.299 6.4564,21.824 5.5964,20.964 C4.7364,20.104 4.2784,18.96 4.2784,17.744 L4.2784,10.229 C4.2784,9.013 4.7364,7.852 5.5964,6.991 C6.4564,6.131 7.5844,5.64 8.8004,5.64 L32.0294,5.64 C33.2464,5.64 34.3874,6.131 35.2474,6.991 C36.1084,7.852 36.5794,9.013 36.5794,10.229 L36.5794,17.744 C36.5794,18.96 36.1084,20.104 35.2474,20.964 C34.3874,21.824 33.2464,22.299 32.0294,22.299 Z" id="Fill-155" fill="#FFFFFF"></path>
                        </g>
                        <polyline id="Fill-157" fill="#DFDFDF" points="11.4339 0 11.4339 15.513 38.3519 15.513 38.3519 10.357 38.2179 0"></polyline>
                        <path d="M0.4339,8.001 L0.5429,8.001 C0.5069,8.001 0.4709,8 0.4339,8 L0.4339,8.001 Z" id="Fill-159" fill="#A2A0A5"></path>
                        <polygon id="Fill-161" fill="#A2A0A5" points="12.4339 4.588 34.4219 4.588 34.4219 4 12.4339 4"></polygon>
                        <polygon id="Fill-163" fill="#A2A0A5" points="12.4339 7.588 34.4219 7.588 34.4219 7 12.4339 7"></polygon>
                        <polygon id="Fill-164" fill="#A2A0A5" points="12.4339 9.588 37.3799 9.588 37.3799 9 12.4339 9"></polygon>
                        <polygon id="Fill-165" fill="#A2A0A5" points="12.4339 12.588 37.3799 12.588 37.3799 12 12.4339 12"></polygon>
                    </g>
                    <g id="phone" transform="translate(44.000000, 3.000000)">
                        <path d="M46.7589,16.6055 C46.9059,17.0125 46.6959,17.4625 46.2889,17.6095 C45.8809,17.7565 45.4309,17.5455 45.2839,17.1375 L43.5669,12.3835 C43.4199,11.9765 43.6309,11.5275 44.0379,11.3795 C44.4449,11.2325 44.8949,11.4435 45.0419,11.8515 L46.7589,16.6055 Z" id="Fill-59" fill="#223B51"></path>
                        <path d="M12.315,21.704 C10.608,22.305 9.709,24.168 10.306,25.867 L11.669,29.744 L15.68,28.334 C15.116,27.956 14.69,27.41 14.461,26.76 C14.181,25.962 14.229,25.102 14.598,24.338 C14.966,23.574 15.611,22.998 16.413,22.717 C17.067,22.486 17.762,22.475 18.411,22.676 L17.436,19.903 L12.315,21.704 Z" id="Fill-60" fill="url(#linearGradient-1)"></path>
                        <path d="M17.11,24.7 C16.841,24.795 16.624,24.988 16.501,25.245 C16.377,25.502 16.361,25.79 16.455,26.058 C16.55,26.326 16.742,26.542 17,26.664 C17.296,26.796 18.312,26.789 19.491,26.671 C18.846,25.684 18.215,24.891 17.927,24.743 C17.781,24.674 17.625,24.639 17.468,24.639 C17.347,24.639 17.227,24.66 17.11,24.7" id="Fill-64" fill="url(#linearGradient-1)"></path>
                        <path d="M20.464,34.238 C19.696,34.509 18.825,34.488 18.035,34.111 C17.269,33.746 16.693,33.106 16.412,32.308 C16.184,31.657 16.173,30.965 16.378,30.317 L12.367,31.728 L15.006,39.232 C15.604,40.932 17.472,41.822 19.179,41.222 L24.299,39.421 L22.048,33.021 C21.657,33.599 21.095,34.017 20.464,34.238" id="Fill-67" fill="url(#linearGradient-1)"></path>
                        <path d="M34.712,13.829 L19.43,19.202 L20.405,21.975 C20.785,21.411 21.334,20.986 21.988,20.756 C22.79,20.474 23.653,20.52 24.419,20.885 C25.857,21.57 26.538,23.202 26.075,24.679 L40.248,19.694 L38.884,15.817 C38.287,14.119 36.419,13.229 34.712,13.829" id="Fill-70" fill="url(#linearGradient-1)"></path>
                        <path d="M22.686,22.74 C22.417,22.835 22.2,23.028 22.077,23.284 C21.943,23.579 21.947,24.593 22.062,25.767 C23.056,25.12 23.853,24.49 24.002,24.202 C24.256,23.672 24.033,23.036 23.502,22.783 C23.356,22.714 23.2,22.679 23.042,22.679 C22.923,22.679 22.802,22.699 22.686,22.74" id="Fill-74" fill="url(#linearGradient-1)"></path>
                        <path d="M18.451,30.794 C18.328,31.051 18.312,31.339 18.406,31.608 C18.501,31.875 18.693,32.09 18.951,32.213 C19.482,32.466 20.121,32.24 20.377,31.711 C20.51,31.417 20.505,30.404 20.391,29.23 C19.397,29.876 18.6,30.507 18.451,30.794" id="Fill-77" fill="url(#linearGradient-1)"></path>
                        <path d="M22.962,28.325 C23.607,29.313 24.238,30.105 24.527,30.252 C25.057,30.505 25.696,30.28 25.952,29.751 C26.208,29.222 25.984,28.585 25.453,28.332 C25.306,28.266 24.979,28.235 24.542,28.235 C24.103,28.235 23.553,28.266 22.962,28.325" id="Fill-80" fill="url(#linearGradient-1)"></path>
                        <path d="M26.73,26.9443 C28.016,27.8063 28.506,29.5053 27.813,30.9403 C27.433,31.7283 26.766,32.2903 25.997,32.5603 C25.367,32.7823 24.667,32.8073 24,32.6013 L26.251,39.0023 L41.533,33.6283 C43.24,33.0283 44.14,31.1643 43.542,29.4663 L40.903,21.9613 L26.73,26.9443 Z" id="Fill-1" fill="url(#linearGradient-1)"></path>
                        <path d="M59.4542,65.79 L26.7902,77.589 L5.7052,19.222 L38.3702,7.423 L59.4542,65.79 Z M35.9112,1.047 L2.9042,12.97 C0.7312,13.755 0.2802,15.934 1.1532,18.351 L25.2152,84.961 C26.0882,87.378 27.8112,88.722 29.9842,87.936 L62.9922,76.014 C65.1642,75.228 66.7852,72.677 65.9122,70.261 L41.8502,3.649 C40.9762,1.232 38.0832,0.262 35.9112,1.047 Z" id="Fill-86" fill="#EE7571"></path>
                        <path d="M21.482,8.9658 C21.581,9.2388 21.44,9.5398 21.167,9.6388 L14.162,12.1688 C13.89,12.2678 13.588,12.1258 13.49,11.8538 C13.392,11.5808 13.533,11.2788 13.805,11.1798 L20.809,8.6508 C21.082,8.5518 21.383,8.6938 21.482,8.9658" id="Fill-88" fill="#000000"></path>
                        <path d="M23.8179,8.1221 C23.9169,8.3951 23.7759,8.6961 23.5029,8.7951 L23.0429,8.9611 C22.7699,9.0591 22.4689,8.9191 22.3699,8.6451 C22.2719,8.3731 22.4129,8.0711 22.6849,7.9731 L23.1449,7.8071 C23.4179,7.7081 23.7199,7.8501 23.8179,8.1221" id="Fill-90" fill="#000000"></path>
                        <polygon id="Fill-92" fill="#E2254E" points="35.8384 44.8477 21.3434 49.9317 21.0234 49.0187 35.5184 43.9347"></polygon>
                        <polygon id="Fill-94" fill="#E2254E" points="47.4996 51.7813 24.7856 59.7473 24.4646 58.8343 47.1796 50.8683"></polygon>
                        <polygon id="Fill-96" fill="#E2254E" points="48.5001 54.6348 25.7861 62.6008 25.4661 61.6878 48.1801 53.7218"></polygon>
                        <polygon id="Fill-98" fill="#E2254E" points="32.0645 48.9912 22.2235 52.4422 21.9035 51.5292 31.7445 48.0782"></polygon>
                        <polygon id="Fill-100" fill="#E2254E" points="46.567 41.0859 38.463 43.9279 38.143 43.0149 46.247 40.1729"></polygon>
                        <polygon id="Fill-102" fill="#E2254E" points="44.8453 44.5088 39.3443 46.4388 39.0233 45.5258 44.5253 43.5958"></polygon>
                        <path d="M49.0089,76.0938 C49.0089,77.9848 47.4769,79.5168 45.5859,79.5168 C43.6959,79.5168 42.1629,77.9848 42.1629,76.0938 C42.1629,74.2038 43.6959,72.6708 45.5859,72.6708 C47.4769,72.6708 49.0089,74.2038 49.0089,76.0938" id="Fill-104" fill="#E2254E"></path>
                    </g>
                </g>
            </g>
        </g>
    </g>
</svg>