<?xml version="1.0" encoding="UTF-8"?>
<svg width="25px" height="21px" viewBox="0 0 25 21" version="1.1" xmlns="http://www.w3.org/2000/svg" xmlns:xlink="http://www.w3.org/1999/xlink">
    <!-- Generator: sketchtool 51.2 (57519) - http://www.bohemiancoding.com/sketch -->
    <title>5824C1BD-C0D9-40BA-A363-14E9CEE781EC</title>
    <desc>Created with sketchtool.</desc>
    <defs>
        <path d="M22.4302634,7.26615603 C22.4461326,7.48822721 22.4461326,7.71034721 22.4461326,7.93241839 C22.4461326,14.7058824 17.2906925,22.5105027 7.86804831,22.5105027 C4.96510729,22.5105027 2.26841706,21.6697279 0,20.210396 C0.412452783,20.2579548 0.808987535,20.273824 1.23730952,20.273824 C3.63258255,20.273824 5.83757163,19.4648365 7.59836952,18.084753 C5.34582166,18.0371454 3.45811898,16.5618955 2.80772581,14.5314188 C3.12501221,14.5789776 3.44224977,14.610716 3.77540537,14.610716 C4.23541694,14.610716 4.69547733,14.5472392 5.12375048,14.4362524 C2.77603623,13.9603228 1.01518951,11.8981565 1.01518951,9.4076683 L1.01518951,9.34424032 C1.69727225,9.72495469 2.49048824,9.96289508 3.33116536,9.99458465 C1.95108184,9.0745127 1.04692792,7.50409641 1.04692792,5.72742931 C1.04692792,4.77566778 1.30068867,3.90320344 1.74487986,3.14177468 C4.26710651,6.25091769 8.05838109,8.28134554 12.3096184,8.50346555 C12.2303212,8.12275117 12.1827136,7.72621642 12.1827136,7.32963284 C12.1827136,4.50598899 14.4669999,2.20588235 17.3064641,2.20588235 C18.781714,2.20588235 20.1141899,2.82453711 21.0501311,3.82390625 C22.2080946,3.60183507 23.3184993,3.17351309 24.3020481,2.58659673 C23.9212848,3.77634747 23.1122973,4.77571661 22.0495002,5.41019174 C23.0806077,5.29920498 24.0799769,5.01360816 25,4.61707341 C24.3021457,5.63226292 23.4296325,6.53641685 22.4302634,7.26615603 Z" id="path-1"></path>
    </defs>
    <g id="Page-1" stroke="none" stroke-width="1" fill="none" fill-rule="evenodd">
        <g id="Website" transform="translate(-1336.000000, -3225.000000)">
            <g id="Brands/facebook-f" transform="translate(1336.000000, 3223.000000)">
                <rect id="Background" x="0" y="0" width="25" height="25"></rect>
                <mask id="mask-2" fill="white">
                    <use xlink:href="#path-1"></use>
                </mask>
                <use id="Mask" fill="#000000" fill-rule="nonzero" xlink:href="#path-1"></use>
                <g id="Color" mask="url(#mask-2)">
                    <rect id="Background" x="0" y="0" width="25" height="25"></rect>
                    <rect id="Rectangle-13" fill="#F13752" x="0" y="0" width="25" height="25"></rect>
                </g>
            </g>
        </g>
    </g>
</svg>