<?xml version="1.0" encoding="UTF-8"?>
<svg width="201px" height="68px" viewBox="0 0 201 68" version="1.1" xmlns="http://www.w3.org/2000/svg" xmlns:xlink="http://www.w3.org/1999/xlink">
    <!-- Generator: sketchtool 51.2 (57519) - http://www.bohemiancoding.com/sketch -->
    <title>52B98860-49B7-46C8-9571-BAC644450536</title>
    <desc>Created with sketchtool.</desc>
    <defs></defs>
    <g id="Page-1" stroke="none" stroke-width="1" fill="none" fill-rule="evenodd">
        <g id="Website" transform="translate(-370.000000, -40.000000)" fill="#FFFFFF">
            <g id="Hero">
                <g id="eDining-logo-white" transform="translate(370.000000, 40.000000)">
                    <path d="M19.7528396,21.9903611 C18.6442526,24.7006516 17.0186279,27.194271 14.8750568,29.4731197 C12.4243526,32.0807765 10.0099955,33.5737171 7.63107678,33.953842 C7.18309859,33.4967418 6.96047251,33.0415422 6.96047251,32.5853923 C6.96047251,32.2812924 7.06678782,31.9657888 7.27850977,31.6360304 C8.85688323,29.9397231 10.4116311,28.1673907 11.943662,26.3190334 C12.7442072,25.331659 13.0749659,24.1285637 12.9341209,22.7106978 C10.5542935,22.988189 8.32803271,24.0896009 6.25533848,26.0130329 C4.01726488,28.0894651 2.89868242,30.3683139 2.89777374,32.8495791 C4.05088596,35.9903611 6.28805089,38.5115395 9.60745116,40.412164 L18.8986824,44.6325007 C18.8514312,44.9366006 18.8278055,45.3918002 18.8268969,46 C12.9159473,45.7187076 8.21717401,44.4633451 4.73239437,42.2348629 C2.75329396,40.9671463 1.34120854,39.2698887 0.494320763,37.1421396 C0.163562017,36.3315232 0,35.4325278 0,34.4451534 C0.000908677874,32.8999457 0.40163562,31.1656258 1.20218083,29.2402932 C1.48568832,28.0257942 2.53339391,26.4815368 4.34802363,24.6065707 C7.78827806,21.0371979 11.1567469,18.885691 14.4543389,18.1510996 C14.9014085,18.0503665 15.3493866,18 15.7964562,18 C17.2567015,18.0009503 18.5524761,18.584442 19.6828714,19.7485745 C19.8945934,20.3064078 20,20.7882161 20,21.1920988 C20,21.5218572 19.9173103,21.7879446 19.7528396,21.9903611" id="Fill-7"></path>
                    <path d="M31.1357307,35.4873088 C30.9942555,35.9616227 30.653264,36.5615455 30.1127562,37.2852024 C29.0317406,36.1359753 28.1983066,31.989009 27.6124542,24.843366 C27.4247275,22.1465256 27.0855498,17.2618417 26.5940141,10.1921265 C27.1118496,9.84248395 28.0042316,9.60532697 29.2738808,9.47971814 C30.3784757,11.5550761 31.0006038,15.9138901 31.1393583,22.5589725 C31.1856098,24.9071078 31.1847029,27.4436564 31.1366376,30.1658061 C31.1366376,31.3647143 31.1366376,32.4136418 31.1357307,33.313526 C31.1357307,34.1890384 31.1357307,34.9126952 31.1357307,35.4873088 M52.9999969,23.8769279 C52.2935278,28.3735367 49.0359707,33.8318968 43.2282325,40.2501334 C37.3497567,46.7433603 32.3301079,50.3269616 28.169286,51 C27.9806524,50.5744298 27.8990321,50.362582 27.9226113,50.362582 C33.7067703,45.3438529 37.5275076,41.8971089 39.3857299,40.0242249 C43.5238794,35.8538241 46.6626336,31.744353 48.8038063,27.6976862 C49.1565874,26.3741065 49.3325245,25.1123939 49.3334314,23.9134857 C49.3334314,22.2655728 49.0051363,20.7413939 48.3476394,19.3409491 C46.2327666,14.7937218 42.2261165,11.1079461 36.3267822,8.28362206 C33.8591283,7.08377646 31.4259362,6.07046936 29.0290199,5.24557552 C28.3234577,5.17058517 27.2533248,5.03372778 25.820435,4.83312859 C24.5272066,4.60722016 23.5876662,4.18258731 23,3.55735527 C23.681983,1.18484808 25.1629381,-0.000936824052 27.4437722,5.55319579e-07 C31.8621514,0.000937934691 37.4921388,2.47561947 44.3310135,7.42404517 C47.5976395,9.77311788 49.7007227,11.7350529 50.64117,13.3089129 C52.2146282,15.9326377 53.0018107,19.4553094 52.9999969,23.8769279" id="Fill-9"></path>
                    <path d="M68,32.2563832 C67.1437926,33.3897302 66.5616815,33.969077 66.2527501,33.9926129 C65.9438188,34.0170541 65.3736249,33.9808449 64.5421687,33.8839854 C63.5209534,32.3641055 62.9516763,30.1200421 62.8334206,27.1517953 C62.8095862,25.5368663 62.7509167,23.1235251 62.6574123,19.9153925 C63.1084337,19.9153925 63.4531168,19.8782781 63.6905448,19.806765 C64.2845731,21.1582723 65.1746988,23.2086166 66.3618387,25.9596084 C67.4545574,28.5413222 68,30.6396437 68,32.2563832 M61.8057884,7.82786605 C60.3555526,9.29976885 58.9887376,10.034815 57.7062598,10.0339098 C56.8271346,10.0339098 55.9883447,9.68992266 55.1935568,9.00285365 C54.3969356,8.31397417 54,7.535477 54,6.66826735 C54.0009167,5.79924725 54.4281037,4.83427285 55.2843112,3.77334414 C55.8306705,3.41125243 56.4604505,2.97674238 57.1736511,2.47071922 C57.6017548,2.15750989 58.0408591,2 58.4918806,2 C58.9199843,2.00090523 59.348088,2.13397393 59.775275,2.39920611 L59.775275,3.52169041 C58.990571,4.29294575 58.5037978,4.81164212 58.3131221,5.07687429 C58.1939497,5.24524694 58.1352803,5.45073398 58.1352803,5.69152497 C58.1352803,5.86080284 58.1701152,6.05361668 58.2416186,6.26996648 C58.8833159,6.34329005 59.844945,6.4283816 61.1283394,6.5243359 C61.6985333,7.20054217 61.924044,7.63505222 61.8057884,7.82786605" id="Fill-11"></path>
                    <path d="M114,36.3537847 C113.832963,36.5317556 113.583325,36.7477952 113.250169,37 C112.132306,36.1377451 110.729012,34.4503521 109.041204,31.9387729 C107.566322,29.7317429 105.961115,28.1461836 104.224664,27.182095 C101.084919,27.0545651 98.2774128,27.4714168 95.8030625,28.4345536 C94.1850063,29.0683967 92.091537,30.2732695 89.521737,32.0472686 C86.5242489,34.1267686 84.1324993,35.6219149 82.3483238,36.5346107 L80.6348179,36.533659 C79.2315235,35.0366094 78.0907159,32.894296 77.2114772,30.1029123 C76.4029079,27.5665884 76,25.1187742 76,22.7594696 L76.9994687,22.2655288 C77.3564873,22.0885096 78.0108685,22 78.9616945,22 C79.9373007,23.0659222 80.7100763,24.385001 81.280939,25.9581879 C81.6131775,26.9470211 82.1124529,28.4174228 82.7778476,30.3712962 C83.8002608,30.3465516 85.7514733,29.3577184 88.6305671,27.4057484 C91.890542,25.1996701 94.3419476,23.8311021 95.9829485,23.298141 C96.9346923,23.1468181 97.8625737,23.0706808 98.7665926,23.0706808 C101.9302,23.0716325 104.820307,23.9472115 107.436914,25.6993211 C110.790503,27.9320475 112.977587,31.4829008 114,36.3537847" id="Fill-13"></path>
                    <path d="M125,32.2563832 C124.143793,33.3897302 123.561682,33.969077 123.25275,33.9926129 C122.943819,34.0170541 122.373625,33.9808449 121.542169,33.8839854 C120.520953,32.3641055 119.95076,30.1200421 119.833421,27.1517953 C119.809586,25.5359611 119.750917,23.1235251 119.657412,19.9144873 C120.108434,19.9153925 120.453117,19.8782781 120.690545,19.806765 C121.283656,21.1573671 122.174699,23.2086166 123.361839,25.9587031 C124.454557,28.5413222 125,30.6396437 125,32.2563832 M118.804872,7.82786605 C117.355553,9.29976885 115.988738,10.0339098 114.70626,10.0339098 C113.826218,10.0339098 112.989261,9.68992266 112.193557,9.00285365 C111.396936,8.31397417 111,7.535477 111,6.66736213 C111,5.79924725 111.428104,4.83427285 112.283394,3.77334414 C112.830671,3.41125243 113.46045,2.97674238 114.172734,2.47071922 C114.600838,2.15750989 115.040859,2 115.491881,2 C115.919984,2 116.348088,2.13397393 116.775275,2.39920611 L116.774358,3.52078518 C115.990571,4.29294575 115.502881,4.81164212 115.313122,5.07687429 C115.19395,5.24524694 115.13528,5.45073398 115.134364,5.69152497 C115.134364,5.85989761 115.170115,6.05361668 115.241619,6.26996648 C115.883316,6.34329005 116.844945,6.4283816 118.128339,6.5243359 C118.698533,7.20054217 118.924044,7.63414699 118.804872,7.82786605" id="Fill-15"></path>
                    <path d="M170,36.352874 C169.832963,36.5308337 169.582408,36.7468595 169.250169,37 C168.132306,36.1368481 166.729012,34.4495622 165.041204,31.939094 C163.566322,29.7312524 161.961115,28.1467453 160.224665,27.1817663 C157.08492,27.0542444 154.277413,27.4710697 151.803063,28.4341454 C150.185007,29.0679482 148.091538,30.2727446 145.521738,32.0475828 C142.52425,34.1259992 140.132501,35.6210506 138.348325,36.5336886 L136.634819,36.5336886 C135.231525,35.0367339 134.090717,32.8936049 133.211479,30.1033498 C132.402909,27.5662352 131.999084,25.1185763 132.000002,22.7594214 L132.99947,22.2664636 C133.356489,22.088504 134.01087,22 134.962614,22 C135.937302,23.0658546 136.710078,24.3848496 137.280023,25.9579368 C137.613179,26.9467073 138.112454,28.4179673 138.777849,30.3707651 C139.800262,30.3460221 141.751474,29.3572516 144.630568,27.4054054 C147.890543,25.1994671 150.341948,23.8309859 151.982949,23.2980586 C152.934693,23.1467453 153.862574,23.0706129 154.766593,23.0715645 C157.9302,23.0725162 160.820308,23.9480396 163.436915,25.6990864 C166.790503,27.9326228 168.978505,31.4832509 170,36.352874" id="Fill-17"></path>
                    <path d="M200.999603,53.2852298 C201.0224,55.6564945 200.064018,58.0661715 198.12537,60.5123873 C194.176949,65.5041289 190.228527,68.0009366 186.281929,67.9999997 C184.509242,67.9990628 183.622899,66.9366313 183.623811,64.8155159 C185.136613,63.1928251 186.886502,62.194102 188.871656,61.8202835 L193.481187,60.9236813 C195.13533,60.2491216 196.566063,58.6760859 197.772475,56.2055111 C198.646963,52.9095375 199.085576,49.2641046 199.087399,45.2692123 C199.087399,43.8704378 199.027216,48.4068517 198.909584,46.8094569 C198.485561,40.9913796 197.222613,35.847862 195.119828,31.3770304 C194.340174,31.3770304 193.276015,31.8510959 191.929175,32.799227 C190.43917,33.8232461 189.352214,34.4097383 188.666484,34.5587035 C186.870088,34.9334589 184.955149,35.0196526 182.922578,34.8200954 C178.550134,34.3685152 176.245824,32.5828058 176.01056,29.4620304 C175.89384,27.8393396 176.74462,25.854073 178.565636,23.5071674 C180.03102,21.6099683 183.340217,20.0125735 188.494139,18.7159199 C190.573216,18.1921993 192.58299,17.9561034 194.521638,18.0066954 C196.411956,18.0572873 197.735088,18.606304 198.491944,19.6546821 C197.166989,21.7523754 195.560264,22.81387 193.669034,22.8372922 C192.841051,22.8616513 191.68388,22.8241757 190.194787,22.7239287 C188.610859,22.6480407 187.464631,22.6105652 186.755192,22.6105652 C185.431148,22.6105652 184.238415,22.8101224 183.174256,23.2092369 C181.756289,23.7329575 180.892743,25.5055505 180.584529,28.5270157 C181.38698,31.0491194 182.782149,32.3101713 184.767303,32.3111082 C185.618083,32.3111082 186.587407,32.0740754 187.674363,31.6000098 C191.243444,30.027911 194.093056,28.3686816 196.220462,26.6213846 C196.835066,26.6213846 197.271855,26.7216317 197.532651,26.9211889 C197.86275,27.2706483 198.181907,27.6210446 198.489209,27.9695671 C198.629638,33.0400074 199.05366,38.3446697 199.761276,43.8873018 C200.562814,50.0810713 200.976806,49.1891535 200.999603,53.2852298" id="Fill-19"></path>
                </g>
            </g>
        </g>
    </g>
</svg>